# OBJ written from A:\UnityProjects\GSS_Engine\GoldenSkullEngine\Assets\GoldenSkullStudios\2D_To_2,5D_Conversion\Meshes\HEX\3DHexFromISO_04.obj
mtllib 3DHexFromISO_04.mtl
# Units	meters

g Mesh
v -0.666546 -2 1.00026
v 0.666546 -2 1.00026
v -0.666546 -2 -1.00026
v 0.666546 -2 -1.00026
v -0.499909 0 -0.750194
v -0.999819 0 -6.73233e-009
v -0.499909 0 0.750194
v -1.33309 -2 -8.97644e-009
v 0.499909 0 0.750194
v 0.999819 0 6.73233e-009
v 0.499909 0 -0.750194
v 1.33309 -2 8.97644e-009
v -1.33309 -0.313318 -8.97644e-009
v -0.666546 -0.313318 1.00026
v 0.666546 -0.313318 1.00026
v 1.33309 -0.313318 8.97644e-009
v -0.666546 -0.313318 -1.00026
v 0.666546 -0.313318 -1.00026
vn -0.234693 0.861234 -0.450772
vn -0.472331 0.881421 -1.12953e-008
vn -0.234693 0.861234 0.450772
vn 0.234693 0.861234 0.450772
vn 0.472331 0.881421 1.12953e-008
vn 0.234693 0.861234 -0.450772
vn 0.857174 -0.515027 0
vn 0.410523 -0.49332 0.766881
vn -0.410523 -0.49332 0.766881
vn -0.857174 -0.515027 0
vn -0.410523 -0.49332 -0.766881
vn 0.410523 -0.49332 -0.766881
vn -0.432097 0.382014 0.81692
vn -0.910057 0.414483 -9.31841e-009
vn 0.432097 0.382014 0.81692
vn 0.910057 0.414483 9.31841e-009
vn -0.432097 0.382014 -0.81692
vn 0.432097 0.382014 -0.81692
vt 0.315339 0.817098
vt 0.0850312 0.701376
vt 0.315339 0.585654
vt 0.684661 0.585654
vt 0.914969 0.701376
vt 0.684661 0.817098
vt 0.914969 0.30625
vt 0.684661 0.182917
vt 0.315339 0.182917
vt 0.0850312 0.30625
vt 0.315339 0.492561
vt 0.0850312 0.605716
vt 0.684661 0.492561
vt 0.914969 0.605716
usemtl Default
f 5/1/1 6/2/2 7/3/3 9/4/4 10/5/5 11/6/6
f 12/7/7 2/8/8 1/9/9 8/10/10 3/9/11 4/8/12
f 14/11/13 7/3/3 6/2/2 13/12/14
f 13/12/14 8/10/10 1/9/9 14/11/13
f 15/13/15 9/4/4 7/3/3 14/11/13
f 14/11/13 1/9/9 2/8/8 15/13/15
f 16/14/16 10/5/5 9/4/4 15/13/15
f 15/13/15 2/8/8 12/7/7 16/14/16
f 13/12/14 6/2/2 5/3/1 17/11/17
f 17/11/17 3/9/11 8/10/10 13/12/14
f 17/11/17 5/3/1 11/4/6 18/13/18
f 18/13/18 4/8/12 3/9/11 17/11/17
f 18/13/18 11/4/6 10/5/5 16/14/16
f 16/14/16 12/7/7 4/8/12 18/13/18
