# OBJ written from C:\Users\Max\Desktop\TMP\GSS\HEX\FINAL\3DHexFromISO.obj
mtllib 3DHexFromISO.mtl
# Units	meters

g 2,5DHex_Hard
v -0.666546 -2 1.00026
v 0.666546 -2 1.00026
v -0.666546 -2 -1.00026
v 0.666546 -2 -1.00026
v -0.666546 0 -1.00026
v -1.33309 0 -8.97644e-009
v -0.666546 0 1.00026
v -1.33309 -2 -8.97644e-009
v 0.666546 0 1.00026
v 1.33309 0 8.97644e-009
v 0.666546 0 -1.00026
v 1.33309 -2 8.97644e-009
vn -0.410523 0.49332 -0.766881
vn -0.857174 0.515028 0
vn -0.410523 0.49332 0.766881
vn 0.410523 0.49332 0.766881
vn 0.857174 0.515028 0
vn 0.410523 0.49332 -0.766881
vn -0.857174 -0.515028 0
vn -0.410523 -0.49332 0.766881
vn 0.410523 -0.49332 0.766881
vn 0.857174 -0.515028 0
vn -0.410523 -0.49332 -0.766881
vn 0.410523 -0.49332 -0.766881
vt 0.315339 0.817098
vt 0.0850312 0.701376
vt 0.315339 0.585654
vt 0.684661 0.585654
vt 0.914969 0.701376
vt 0.684661 0.817098
vt 0.0850312 0.28225
vt 0.315339 0.182917
vt 0.684661 0.182917
vt 0.914969 0.28225
usemtl Default
f 5/1/1 6/2/2 7/3/3 9/4/4 10/5/5 11/6/6
f 6/2/2 8/7/7 1/8/8 7/3/3
f 7/3/3 1/8/8 2/9/9 9/4/4
f 9/4/4 2/9/9 12/10/10 10/5/5
f 6/2/2 5/3/1 3/8/11 8/7/7
f 5/3/1 11/4/6 4/9/12 3/8/11
f 11/4/6 10/5/5 12/10/10 4/9/12
f 12/10/10 2/9/9 1/8/8 8/7/7 3/8/11 4/9/12
