# OBJ written from A:\UnityProjects\GSS_Engine\GoldenSkullEngine\Assets\GoldenSkullStudios\2D_To_2,5D_Conversion\Meshes\HEX\3DHexFromISO_02.obj
mtllib 3DHexFromISO_02.mtl
# Units	meters

g Mesh
v -0.666546 -2 1.00026
v 0.666546 -2 1.00026
v -0.666546 -2 -1.00026
v 0.666546 -2 -1.00026
v -0.566564 0 -0.85022
v -1.13313 0 -7.62998e-009
v -0.566564 0 0.85022
v -1.33309 -2 -8.97644e-009
v 0.566564 0 0.85022
v 1.13313 0 7.62998e-009
v 0.566564 0 -0.85022
v 1.33309 -2 8.97644e-009
v -0.666546 -0.187725 1.00026
v -1.33309 -0.187725 -8.97644e-009
v 0.666546 -0.187725 1.00026
v 1.33309 -0.187725 8.97644e-009
v -0.666546 -0.187725 -1.00026
v 0.666546 -0.187725 -1.00026
vn -0.234502 0.861467 -0.450425
vn -0.471938 0.881632 0
vn -0.234502 0.861467 0.450425
vn 0.234502 0.861467 0.450425
vn 0.471938 0.881632 0
vn 0.234502 0.861467 -0.450425
vn 0.857174 -0.515028 0
vn 0.410523 -0.49332 0.766881
vn -0.410523 -0.49332 0.766881
vn -0.857174 -0.515028 0
vn -0.410523 -0.49332 -0.766881
vn 0.410523 -0.49332 -0.766881
vn -0.909891 0.414847 0
vn -0.432023 0.382366 0.816794
vn 0.432023 0.382366 0.816794
vn 0.909891 0.414847 0
vn -0.432023 0.382366 -0.816794
vn 0.432023 0.382366 -0.816794
vt 0.332882 0.790104
vt 0.124453 0.685376
vt 0.332882 0.580648
vt 0.667118 0.580648
vt 0.875547 0.685376
vt 0.667118 0.790104
vt 0.914969 0.30225
vt 0.684661 0.182917
vt 0.315339 0.182917
vt 0.0850312 0.30225
vt 0.0850312 0.652896
vt 0.315339 0.537975
vt 0.684661 0.537975
vt 0.914969 0.652896
usemtl Default
f 5/1/1 6/2/2 7/3/3 9/4/4 10/5/5 11/6/6
f 12/7/7 2/8/8 1/9/9 8/10/10 3/9/11 4/8/12
f 14/11/13 8/10/10 1/9/9 13/12/14
f 13/12/14 7/3/3 6/2/2 14/11/13
f 13/12/14 1/9/9 2/8/8 15/13/15
f 15/13/15 9/4/4 7/3/3 13/12/14
f 15/13/15 2/8/8 12/7/7 16/14/16
f 16/14/16 10/5/5 9/4/4 15/13/15
f 17/12/17 3/9/11 8/10/10 14/11/13
f 14/11/13 6/2/2 5/3/1 17/12/17
f 18/13/18 4/8/12 3/9/11 17/12/17
f 17/12/17 5/3/1 11/4/6 18/13/18
f 16/14/16 12/7/7 4/8/12 18/13/18
f 18/13/18 11/4/6 10/5/5 16/14/16
