# OBJ written from A:\UnityProjects\GSS_Engine\GoldenSkullEngine\Assets\GoldenSkullStudios\2D_To_2,5D_Conversion\Meshes\HEX\3DHexFromISO_03.obj
mtllib 3DHexFromISO_03.mtl
# Units	meters

g Mesh
v -0.666546 -2 1.00026
v 0.666546 -2 1.00026
v -0.666546 -2 -1.00026
v 0.666546 -2 -1.00026
v -0.566564 0 -0.85022
v -1.13313 0 -7.62998e-009
v -0.566564 0 0.85022
v -1.33309 -2 -8.97644e-009
v 0.566564 0 0.85022
v 1.13313 0 7.62998e-009
v 0.566564 0 -0.85022
v 1.33309 -2 8.97644e-009
v -0.666546 -0.187725 1.00026
v -1.33309 -0.187725 -8.97644e-009
v 0.666546 -0.187725 1.00026
v 1.33309 -0.187725 8.97644e-009
v -0.666546 -0.187725 -1.00026
v 0.666546 -0.187725 -1.00026
v -0.639461 -0.0856921 0.959614
v -1.27892 -0.0856921 -8.61169e-009
v 0.639461 -0.0856921 0.959614
v 1.27892 -0.0856921 8.61169e-009
v -0.639461 -0.0856921 -0.959614
v 0.639461 -0.0856921 -0.959614
vn -0.17093 0.927139 -0.33346
vn -0.342529 0.939507 0
vn -0.17093 0.927139 0.33346
vn 0.17093 0.927139 0.33346
vn 0.342529 0.939507 0
vn 0.17093 0.927139 -0.33346
vn 0.857174 -0.515028 0
vn 0.410523 -0.49332 0.766881
vn -0.410523 -0.49332 0.766881
vn -0.857174 -0.515028 0
vn -0.410523 -0.49332 -0.766881
vn 0.410523 -0.49332 -0.766881
vn -0.96931 0.245843 0
vn -0.458381 0.222722 0.860396
vn 0.458381 0.222722 0.860396
vn 0.96931 0.245843 0
vn -0.458381 0.222722 -0.860396
vn 0.458381 0.222722 -0.860396
vn -0.712927 0.701239 0
vn -0.346581 0.664034 0.662525
vn 0.346581 0.664034 0.662525
vn 0.712927 0.701239 0
vn -0.346581 0.664034 -0.662525
vn 0.346581 0.664034 -0.662525
vt 0.332485 0.786172
vt 0.125857 0.683376
vt 0.332485 0.58058
vt 0.663835 0.58058
vt 0.870463 0.683376
vt 0.663829 0.786172
vt 0.914969 0.30825
vt 0.684661 0.182917
vt 0.315339 0.182917
vt 0.0850312 0.30825
vt 0.0850312 0.640896
vt 0.315339 0.525975
vt 0.684661 0.525975
vt 0.914969 0.640896
vt 0.10163 0.667175
vt 0.322725 0.556454
vt 0.677275 0.556454
vt 0.89837 0.667175
usemtl Default
f 5/1/1 6/2/2 7/3/3 9/4/4 10/5/5 11/6/6
f 12/7/7 2/8/8 1/9/9 8/10/10 3/9/11 4/8/12
f 14/11/13 8/10/10 1/9/9 13/12/14
f 13/12/14 1/9/9 2/8/8 15/13/15
f 15/13/15 2/8/8 12/7/7 16/14/16
f 17/12/17 3/9/11 8/10/10 14/11/13
f 18/13/18 4/8/12 3/9/11 17/12/17
f 16/14/16 12/7/7 4/8/12 18/13/18
f 20/15/19 14/11/13 13/12/14 19/16/20
f 19/16/20 7/3/3 6/2/2 20/15/19
f 19/16/20 13/12/14 15/13/15 21/17/21
f 21/17/21 9/4/4 7/3/3 19/16/20
f 21/17/21 15/13/15 16/14/16 22/18/22
f 22/18/22 10/5/5 9/4/4 21/17/21
f 23/16/23 17/12/17 14/11/13 20/15/19
f 20/15/19 6/2/2 5/3/1 23/16/23
f 24/17/24 18/13/18 17/12/17 23/16/23
f 23/16/23 5/3/1 11/4/6 24/17/24
f 22/18/22 16/14/16 18/13/18 24/17/24
f 24/17/24 11/4/6 10/5/5 22/18/22
