# OBJ written from A:\UnityProjects\GSS_Engine\GoldenSkullEngine\Assets\GoldenSkullStudios\2D_To_2,5D_Conversion\Meshes\HEX\3DHexFromISO_06.obj
mtllib 3DHexFromISO_06.mtl
# Units	meters

g Mesh
v -0.666546 -2 1.00026
v 0.666546 -2 1.00026
v -0.666546 -2 -1.00026
v 0.666546 -2 -1.00026
v -0.666546 -0.18 -1.00026
v -1.33309 -0.18 -8.97644e-009
v -0.666546 -0.18 1.00026
v -1.33309 -2 -8.97644e-009
v 0.666546 -0.18 1.00026
v 1.33309 -0.18 8.97644e-009
v 0.666546 -0.18 -1.00026
v 1.33309 -2 8.97644e-009
v 0 0 0
v 0.581524 0 0.87267
v 1.16305 0 7.83144e-009
v 0.581524 0 -0.87267
v -0.581524 0 -0.87267
v -1.16305 0 -7.83144e-009
v -0.581524 0 0.87267
vn 0.438006 0.35253 0.826966
vn 0.410523 -0.49332 0.766881
vn 0.857174 -0.515028 0
vn 0.923363 0.383929 0
vn -0.410523 -0.49332 0.766881
vn -0.857174 -0.515028 0
vn -0.410523 -0.49332 -0.766881
vn 0.410523 -0.49332 -0.766881
vn -0.923363 0.383929 0
vn -0.438006 0.35253 -0.826966
vn 0.438006 0.35253 -0.826966
vn -0.438006 0.35253 0.826966
vn 0.187213 0.914676 0.358218
vn 0.374846 0.927087 0
vn 0.187213 0.914676 -0.358218
vn -0.187213 0.914676 -0.358218
vn -0.374846 0.927087 0
vn -0.187213 0.914676 0.358218
vn 0 1 0
vt 0.684661 0.584497
vt 0.684661 0.182917
vt 0.914969 0.30025
vt 0.914969 0.701376
vt 0.315339 0.182917
vt 0.0850312 0.30025
vt 0.0850312 0.701376
vt 0.315339 0.584497
vt 0.646759 0.609258
vt 0.83061 0.701637
vt 0.646759 0.794016
vt 0.684661 0.818255
vt 0.315339 0.818255
vt 0.351934 0.794016
vt 0.168083 0.701637
vt 0.351934 0.609258
vt 0.495257 0.703269
usemtl Default
f 9/1/1 2/2/2 12/3/3 10/4/4
f 12/3/3 2/2/2 1/5/5 8/6/6 3/5/7 4/2/8
f 3/5/7 8/6/6 6/7/9 5/8/10
f 4/2/8 3/5/7 5/8/10 11/1/11
f 12/3/3 4/2/8 11/1/11 10/4/4
f 7/8/12 1/5/5 2/2/2 9/1/1
f 1/5/5 7/8/12 6/7/9 8/6/6
f 14/9/13 9/1/1 10/4/4 15/10/14
f 16/11/15 11/12/11 5/13/10 17/14/16
f 15/10/14 10/4/4 11/12/11 16/11/15
f 17/14/16 5/13/10 6/7/9 18/15/17
f 18/15/17 6/7/9 7/8/12 19/16/18
f 19/16/18 7/8/12 9/1/1 14/9/13
f 16/11/15 17/14/16 13/17/19
f 17/14/16 18/15/17 13/17/19
f 19/16/18 14/9/13 13/17/19
f 19/16/18 13/17/19 18/15/17
f 16/11/15 13/17/19 15/10/14
f 14/9/13 15/10/14 13/17/19
