# OBJ written from C:\Users\Max\Desktop\TMP\GSS\2,5D\ISO\3D_ISO_1,5height.obj
mtllib 3D_ISO_1,5height.mtl
# Units	meters

g Mesh
v -0.5 -1 -0.5
v 0.5 -1 -0.5
v 0.5 -1 0.5
v -0.5 -1 0.5
v -0.5 0.5 -0.5
v 0.5 0.5 -0.5
v 0.5 0.5 0.5
v -0.5 0.5 0.5
vn 0 -1 0
vn 0 0 -1
vn 1 0 0
vn 0 0 1
vn -1 0 0
vn 0 1 0
vt 0.124999 0.255115
vt 0.502024 0.446311
vt 0.875001 0.253039
vt 0.502024 0.0618431
vt 0.124999 0.778888
vt 0.502024 0.59958
vt 0.502024 0.0623106
vt 0.875001 0.776958
vt 0.502024 0.599146
vt 0.502024 0.956701
usemtl Default
f 1/1/1 2/2/1 3/3/1 4/4/1
f 5/5/2 6/6/2 2/7/2 1/1/2
f 6/6/3 7/8/3 3/3/3 2/7/3
f 7/8/4 8/9/4 4/4/4 3/3/4
f 8/9/5 5/5/5 1/1/5 4/4/5
f 5/5/6 8/9/6 7/8/6 6/10/6
