# OBJ written from A:\UnityProjects\GSS_Engine\GoldenSkullEngine\Assets\GoldenSkullStudios\2D_To_2,5D_Conversion\Meshes\Other\HEX.obj
mtllib HEX.mtl
# Units	meters

g Mesh
v -0.666546 -2 1.00026
v 0.666546 -2 1.00026
v -0.666546 -2 -1.00026
v 0.666546 -2 -1.00026
v -0.666546 0 -1.00026
v -1.33309 0 -8.97644e-009
v -0.666546 0 1.00026
v -1.33309 -2 -8.97644e-009
v 0.666546 0 1.00026
v 1.33309 0 8.97644e-009
v 0.666546 0 -1.00026
v 1.33309 -2 8.97644e-009
v 0 0 0
vn 0 0 1
vn 0 -1 0
vn 0 0 -1
vn -0.832164 0 -0.55453
vn 0.832164 0 -0.55453
vn 0 1 0
vn -0.832164 0 0.55453
vn 0.832164 0 0.55453
vt 0.918975 0.387025
vt 0.326511 0.387025
vt 0.326511 0.0142275
vt 0.918975 0.0142275
vt 0.992797 0.705
vt 0.806399 0.985157
vt 0.433601 0.985157
vt 0.247203 0.705
vt 0.433601 0.424843
vt 0.806399 0.424843
vt 0.918975 0.386978
vt 0.326511 0.386978
vt 0.62 0.705
usemtl Default
f 7/1/1 1/2/1 2/3/1 9/4/1
f 12/5/2 2/6/2 1/7/2 8/8/2 3/9/2 4/10/2
f 4/3/3 3/2/3 5/1/3 11/4/3
f 6/11/4 5/4/4 3/3/4 8/12/4
f 11/11/5 10/4/5 12/3/5 4/12/5
f 5/9/6 13/13/6 11/10/6
f 1/3/7 7/4/7 6/11/7 8/12/7
f 6/8/6 13/13/6 5/9/6
f 6/8/6 7/7/6 13/13/6
f 12/3/8 10/4/8 9/11/8 2/12/8
f 10/5/6 11/10/6 13/13/6
f 10/5/6 13/13/6 9/6/6
f 7/7/6 9/6/6 13/13/6
