# OBJ written from A:\UnityProjects\GSS_Engine\GoldenSkullEngine\Assets\GoldenSkullStudios\2D_To_2,5D_Conversion\Meshes\Other\HEX_wGrass.obj
mtllib HEX_wGrass.mtl
# Units	meters

g Mesh
v -0.666546 -2 1.00026
v 0.666546 -2 1.00026
v -0.666546 -2 -1.00026
v 0.666546 -2 -1.00026
v -0.666546 0 -1.00026
v -1.33309 0 -8.97644e-009
v -0.666546 0 1.00026
v -1.33309 -2 -8.97644e-009
v 0.666546 0 1.00026
v 1.33309 0 8.97644e-009
v 0.666546 0 -1.00026
v 1.33309 -2 8.97644e-009
v 0 0 0
v 1.47306 -0.26 9.91897e-009
v 0.736533 -0.26 1.10529
v 0.736533 -0.26 -1.10529
v -0.736533 -0.26 -1.10529
v -1.47306 -0.26 -9.91897e-009
v -0.736533 -0.26 1.10529
v 0.710803 -0.100009 1.06668
v 1.4216 -0.100009 9.57246e-009
v 0.710803 -0.100009 -1.06668
v -0.710803 -0.100009 -1.06668
v -1.4216 -0.100009 -9.57246e-009
v -0.710803 -0.100009 1.06668
vn -0.441017 0.336527 0.832018
vn -0.471948 0 0.881626
vn 0.471948 0 0.881626
vn 0.441021 0.336517 0.83202
vn 0 -1 0
vn 0.471948 0 -0.881626
vn -0.471948 0 -0.881626
vn -0.441021 0.336517 -0.83202
vn 0.441017 0.336527 -0.832018
vn -0.952978 0.242089 -0.182277
vn -1 0 0
vn 0.952976 0.242102 -0.182273
vn 1 0 0
vn -0.193549 0.908811 -0.369596
vn 0 1 0
vn 0.193542 0.908815 -0.36959
vn -0.952976 0.242102 0.182273
vn -0.387712 0.921781 -3.50066e-006
vn -0.193542 0.908815 0.36959
vn 0.952978 0.242089 0.182277
vn 0.387712 0.921781 3.50066e-006
vn 0.193549 0.908811 0.369596
vn 0.865868 0.500272 3.88671e-006
vn 0.557591 0.817821 0.142344
vn 0.334343 0.700251 0.630764
vn 0.414754 0.461317 0.784325
vn 0.452016 0.277294 0.847815
vn 0.95197 0.30619 6.70566e-007
vn 0.414748 0.461327 -0.784322
vn 0.334339 0.700256 -0.630761
vn 0.557591 0.817821 -0.142338
vn 0.452015 0.277298 -0.847814
vn -0.414754 0.461317 -0.784325
vn -0.334343 0.700251 -0.630764
vn -0.452016 0.277294 -0.847815
vn -0.865868 0.500272 -3.88671e-006
vn -0.557591 0.817821 -0.142344
vn -0.95197 0.30619 -6.70566e-007
vn -0.414748 0.461327 0.784322
vn -0.334339 0.700256 0.630761
vn -0.557591 0.817821 0.142338
vn -0.452015 0.277298 0.847814
vt 0.918975 0.387025
vt 0.326511 0.387025
vt 0.326511 0.0142275
vt 0.918975 0.0142275
vt 0.992797 0.705
vt 0.806399 0.985157
vt 0.433601 0.985157
vt 0.247203 0.705
vt 0.433601 0.424843
vt 0.806399 0.424843
vt 0.918975 0.386978
vt 0.326511 0.386978
vt 0.62 0.705
vt 0.0600468 0.0545849
vt 0.09355 0.0545849
vt 0.09355 0.340403
vt 0.0600468 0.340403
vt 0.00645 0.340403
vt 0.00645 0.0545849
vt 0.139953 0.340403
vt 0.10645 0.340403
vt 0.10645 0.0545849
vt 0.139953 0.0545849
vt 0.19355 0.0545849
vt 0.19355 0.340403
vt 0.139953 0.711597
vt 0.10645 0.711597
vt 0.19355 0.711597
vt 0.139953 0.997415
vt 0.10645 0.997415
vt 0.19355 0.997415
vt 0.0600468 0.711597
vt 0.09355 0.711597
vt 0.09355 0.997415
vt 0.0600468 0.997415
vt 0.00645 0.997415
vt 0.00645 0.711597
usemtl Default
f 7/1/1 1/2/2 2/3/3 9/4/4
f 12/5/5 2/6/5 1/7/5 8/8/5 3/9/5 4/10/5
f 4/3/6 3/2/7 5/1/8 11/4/9
f 6/11/10 5/4/8 3/3/7 8/12/11
f 11/11/9 10/4/12 12/3/13 4/12/6
f 5/9/14 13/13/15 11/10/16
f 1/3/2 7/4/1 6/11/17 8/12/11
f 6/8/18 13/13/15 5/9/14
f 6/8/18 7/7/19 13/13/15
f 12/3/13 10/4/20 9/11/4 2/12/3
f 10/5/21 11/10/16 13/13/15
f 10/5/21 13/13/15 9/6/22
f 7/7/19 9/6/22 13/13/15
f 21/14/23 10/15/24 9/16/25 20/17/26
f 20/17/26 15/18/27 14/19/28 21/14/23
f 22/20/29 11/21/30 10/22/31 21/23/23
f 21/23/23 14/24/28 16/25/32 22/20/29
f 23/26/33 5/27/34 11/21/30 22/20/29
f 22/20/29 16/25/32 17/28/35 23/26/33
f 24/29/36 6/30/37 5/27/34 23/26/33
f 23/26/33 17/28/35 18/31/38 24/29/36
f 25/32/39 7/33/40 6/34/41 24/35/36
f 24/35/36 18/36/38 19/37/42 25/32/39
f 20/17/26 9/16/25 7/33/40 25/32/39
f 25/32/39 19/37/42 15/18/27 20/17/26
