# OBJ written from A:\UnityProjects\GSS_Engine\GoldenSkullEngine\Assets\GoldenSkullStudios\2D_To_2,5D_Conversion\Meshes\Other\3D_ISO_3Faces_Grass.obj
mtllib 3D_ISO_3Faces_Grass.mtl
# Units	meters

g Mesh
v -0.58 0.37 -0.58
v -0.58 0.37 0.58
v 0.58 0.37 0.58
v 0.58 0.37 -0.58
v -0.548 0.45 -0.549259
v -0.548 0.45 0.552
v 0.55 0.45 0.552
v 0.55 0.45 -0.549259
v -0.5 -0.5 -0.5
v 0.5 -0.5 -0.5
v 0.5 -0.5 0.5
v -0.5 -0.5 0.5
v -0.5 0.5 -0.5
v 0.5 0.5 -0.5
v 0.5 0.5 0.5
v -0.5 0.5 0.5
v -0.5 0.5 -0.5
v 0.5 0.5 -0.5
v 0.5 0.5 0.5
v -0.5 0.5 0.5
v -0.5 -0.5 -0.5
v 0.5 -0.5 -0.5
v 0.5 -0.5 0.5
v -0.5 -0.5 0.5
v -0.5 -0.5 -0.5
v -0.5 -0.5 0.5
v -0.5 0.5 -0.5
v -0.5 0.5 0.5
v 0.5 -0.5 -0.5
v 0.5 -0.5 0.5
v 0.5 0.5 -0.5
v 0.5 0.5 0.5
vn -0.523201 0.673692 -0.521919
vn -0.616737 0.484954 -0.620044
vn -0.619621 0.468309 0.629886
vn -0.525014 0.673062 0.52091
vn 0.626733 0.456145 0.631773
vn 0.52417 0.672793 0.522107
vn 0.623957 0.473011 -0.622043
vn 0.522354 0.673423 -0.523113
vn 0 0 -1
vn 0 0 1
vn -0.27613 0.923778 0.265305
vn -0.277442 0.92085 -0.273972
vn 0.269674 0.92596 0.264336
vn 0.270957 0.923075 -0.272972
vn 0 -1 0
vn -1 0 0
vn 1 0 0
vt 0.530878 0.719029
vt 0.5205 0.680875
vt 0.9955 0.680875
vt 0.985122 0.719029
vt 0.530878 0.958029
vt 0.5205 0.919875
vt 0.9955 0.919875
vt 0.985122 0.958029
vt 0.985122 0.800029
vt 0.9955 0.761875
vt 0.5205 0.761875
vt 0.530878 0.800029
vt 0.985122 0.880029
vt 0.9955 0.841875
vt 0.5205 0.841875
vt 0.530878 0.880029
vt 0.02 0.497967
vt 0.501967 0.497967
vt 0.501967 0.016
vt 0.02 0.016
vt 0.962741 0.739125
vt 0.553259 0.739125
vt 0.962741 0.978125
vt 0.553259 0.978125
vt 0.553259 0.820125
vt 0.962741 0.820125
vt 0.553259 0.900125
vt 0.962741 0.900125
vt 0.02 0.979934
vt 0.501967 0.979934
vt 0.517017 0.0190165
vt 0.998984 0.0190165
vt 0.998984 0.500983
vt 0.517017 0.500983
usemtl Default
f 5/1/1 1/2/2 2/3/3 6/4/4
f 6/5/4 2/6/3 3/7/5 7/8/6
f 7/9/6 3/10/5 4/11/7 8/12/8
f 8/13/8 4/14/7 1/15/2 5/16/1
f 13/17/9 14/18/9 10/19/9 9/20/9
f 15/18/10 16/17/10 12/20/10 11/19/10
f 6/4/4 20/21/11 17/22/12 5/1/1
f 7/8/6 19/23/13 20/24/11 6/5/4
f 8/12/8 18/25/14 19/26/13 7/9/6
f 5/16/1 17/27/12 18/28/14 8/13/8
f 17/17/12 20/29/11 19/30/13 18/18/14
f 21/31/15 22/32/15 23/33/15 24/34/15
f 28/18/16 27/17/16 25/20/16 26/19/16
f 31/17/17 32/18/17 30/19/17 29/20/17
