# This file uses centimeters as units for non-parametric coordinates.

v -0.500000 -0.330000 -0.500000
v 0.500000 -0.330000 -0.500000
v 0.500000 -0.330000 0.500000
v -0.500000 0.000000 -0.500000
v 0.500000 0.000000 -0.500000
v 0.500000 0.000000 0.500000
v -0.500000 0.000000 0.500000
vt 0.006739 0.646329
vt 0.502662 0.325676
vt 0.502662 0.008238
vt 0.006739 0.340660
vt 0.993261 0.646329
vt 0.993261 0.336932
vt 0.502662 0.967371
vn 0.000000 0.000000 -1.000000
vn 0.000000 0.000000 -1.000000
vn 0.000000 0.000000 -1.000000
vn 0.000000 0.000000 -1.000000
vn 1.000000 0.000000 0.000000
vn 1.000000 0.000000 0.000000
vn 1.000000 0.000000 0.000000
vn 1.000000 0.000000 0.000000
vn 0.000000 1.000000 0.000000
vn 0.000000 1.000000 0.000000
vn 0.000000 1.000000 0.000000
vn 0.000000 1.000000 0.000000
s off
f 4/1/1 5/2/2 2/3/3 1/4/4
f 5/2/5 6/5/6 3/6/7 2/3/8
f 4/1/9 7/7/10 6/5/11 5/2/12
