# This file uses centimeters as units for non-parametric coordinates.

v -0.485933 -0.330000 -0.485934
v -0.485933 -0.000000 -0.485934
v 0.500000 -0.000000 -0.485934
v 0.500000 -0.330000 -0.485934
v -0.485933 -0.000000 0.500000
v 0.500000 0.000000 0.500000
v -0.485934 -0.330000 0.500000
vt 0.505273 0.006770
vt 0.505273 0.310666
vt 0.013488 0.646942
vt 0.010729 0.341388
vt 1.000292 0.646942
vt 0.505273 0.973353
vt 0.999818 0.341388
vn -0.000000 0.000000 -1.000000
vn -0.000000 0.000000 -1.000000
vn -0.000000 0.000000 -1.000000
vn -0.000000 0.000000 -1.000000
vn -0.000000 1.000000 -0.000000
vn -0.000000 1.000000 -0.000000
vn -0.000000 1.000000 -0.000000
vn -0.000000 1.000000 -0.000000
vn -1.000000 0.000001 -0.000000
vn -1.000000 0.000001 -0.000000
vn -1.000000 0.000001 -0.000000
vn -1.000000 0.000001 -0.000000
s off
f 1/1/1 2/2/2 3/3/3 4/4/4
f 5/5/5 6/6/6 3/3/7 2/2/8
f 2/2/9 1/1/10 7/7/11 5/5/12
